<svg xmlns="http://www.w3.org/2000/svg" xmlns:xlink="http://www.w3.org/1999/xlink" width="500" zoomAndPan="magnify" viewBox="0 0 375 187.499995" height="250" preserveAspectRatio="xMidYMid meet" version="1.2"><defs><clipPath id="10b27c6e05"><rect x="0" width="211" y="0" height="86"/></clipPath><clipPath id="d1e8ad55d3"><path d="M 244 13.21875 L 320 13.21875 L 320 89 L 244 89 Z M 244 13.21875 "/></clipPath><clipPath id="c5e2089c6f"><rect x="0" width="247" y="0" height="55"/></clipPath></defs><g id="f47a25fd36"><g transform="matrix(1,0,0,1,14,45)"><g clip-path="url(#10b27c6e05)"><g style="fill:#371a45;fill-opacity:1;"><g transform="translate(0.567564, 69.316607)"><path style="stroke:none" d="M 32.5 -55.03125 C 35.070312 -53.957031 37.414062 -52.578125 39.53125 -50.890625 C 41.65625 -49.203125 43.375 -47.242188 44.6875 -45.015625 C 46 -42.785156 46.75 -40.382812 46.9375 -37.8125 C 47.125 -35.238281 46.578125 -32.554688 45.296875 -29.765625 C 43.628906 -26.390625 41.320312 -23.695312 38.375 -21.6875 C 35.425781 -19.675781 32.164062 -18.382812 28.59375 -17.8125 C 25.03125 -17.25 21.503906 -17.375 18.015625 -18.1875 C 17.691406 -15.125 17.367188 -12.0625 17.046875 -9 C 16.734375 -5.945312 16.414062 -2.894531 16.09375 0.15625 C 15.925781 1.65625 15.398438 2.875 14.515625 3.8125 C 13.628906 4.757812 12.570312 5.378906 11.34375 5.671875 C 10.113281 5.960938 8.90625 5.960938 7.71875 5.671875 C 6.539062 5.378906 5.601562 4.773438 4.90625 3.859375 C 4.207031 2.953125 3.910156 1.71875 4.015625 0.15625 C 4.773438 -7.082031 5.5 -14.304688 6.1875 -21.515625 C 6.882812 -28.734375 7.640625 -35.9375 8.453125 -43.125 C 8.828125 -45.96875 9.601562 -48.523438 10.78125 -50.796875 C 11.957031 -53.078125 13.96875 -54.753906 16.8125 -55.828125 C 19.332031 -56.796875 21.972656 -57.144531 24.734375 -56.875 C 27.492188 -56.613281 30.082031 -56 32.5 -55.03125 Z M 19.234375 -30.328125 C 20.566406 -29.953125 22.09375 -29.738281 23.8125 -29.6875 C 25.53125 -29.632812 27.21875 -29.820312 28.875 -30.25 C 30.539062 -30.675781 31.9375 -31.410156 33.0625 -32.453125 C 34.1875 -33.503906 34.832031 -34.941406 35 -36.765625 C 35.101562 -37.941406 34.695312 -39.078125 33.78125 -40.171875 C 32.875 -41.273438 31.695312 -42.226562 30.25 -43.03125 C 28.800781 -43.84375 27.351562 -44.421875 25.90625 -44.765625 C 24.457031 -45.117188 23.222656 -45.160156 22.203125 -44.890625 C 21.609375 -44.679688 21.242188 -44.546875 21.109375 -44.484375 C 20.984375 -44.429688 20.921875 -44.320312 20.921875 -44.15625 C 20.921875 -44 20.785156 -43.65625 20.515625 -43.125 C 20.191406 -42.425781 20.03125 -41.484375 20.03125 -40.296875 C 20.03125 -39.117188 20.003906 -38.101562 19.953125 -37.25 C 19.847656 -36.070312 19.726562 -34.914062 19.59375 -33.78125 C 19.457031 -32.65625 19.335938 -31.503906 19.234375 -30.328125 Z M 19.234375 -30.328125 "/></g></g><g style="fill:#371a45;fill-opacity:1;"><g transform="translate(44.409099, 69.316607)"><path style="stroke:none" d="M 45.78125 -7.640625 C 46.6875 -6.410156 47.054688 -5.203125 46.890625 -4.015625 C 46.734375 -2.835938 46.226562 -1.832031 45.375 -1 C 44.519531 -0.175781 43.488281 0.40625 42.28125 0.75 C 41.070312 1.101562 39.835938 1.117188 38.578125 0.796875 C 37.316406 0.484375 36.226562 -0.289062 35.3125 -1.53125 C 32.90625 -4.851562 30.210938 -7.921875 27.234375 -10.734375 C 24.253906 -13.554688 21.050781 -16.09375 17.625 -18.34375 C 17.351562 -15.125 17.097656 -11.929688 16.859375 -8.765625 C 16.617188 -5.597656 16.363281 -2.410156 16.09375 0.796875 C 15.988281 2.359375 15.492188 3.59375 14.609375 4.5 C 13.722656 5.414062 12.660156 6.035156 11.421875 6.359375 C 10.191406 6.679688 9 6.679688 7.84375 6.359375 C 6.6875 6.035156 5.734375 5.414062 4.984375 4.5 C 4.234375 3.59375 3.910156 2.359375 4.015625 0.796875 C 4.503906 -5.097656 4.878906 -11.078125 5.140625 -17.140625 C 5.410156 -23.203125 6.140625 -29.128906 7.328125 -34.921875 C 7.910156 -37.867188 9.003906 -40.734375 10.609375 -43.515625 C 12.222656 -46.304688 14.273438 -48.628906 16.765625 -50.484375 C 19.265625 -52.335938 22.175781 -53.316406 25.5 -53.421875 C 27.8125 -53.523438 30 -53.09375 32.0625 -52.125 C 34.125 -51.164062 35.878906 -49.835938 37.328125 -48.140625 C 38.773438 -46.453125 39.753906 -44.519531 40.265625 -42.34375 C 40.773438 -40.175781 40.65625 -37.941406 39.90625 -35.640625 C 39.15625 -33.390625 37.929688 -31.226562 36.234375 -29.15625 C 34.546875 -27.09375 32.601562 -25.3125 30.40625 -23.8125 C 36.144531 -19.195312 41.269531 -13.804688 45.78125 -7.640625 Z M 28.5625 -39.90625 C 28.34375 -40.976562 27.925781 -41.582031 27.3125 -41.71875 C 26.695312 -41.851562 26 -41.675781 25.21875 -41.1875 C 24.445312 -40.707031 23.679688 -40.09375 22.921875 -39.34375 C 22.171875 -38.59375 21.523438 -37.851562 20.984375 -37.125 C 20.453125 -36.40625 20.109375 -35.882812 19.953125 -35.5625 C 19.523438 -34.382812 19.148438 -33.039062 18.828125 -31.53125 C 19.898438 -31.695312 20.863281 -32.035156 21.71875 -32.546875 C 22.582031 -33.054688 23.414062 -33.6875 24.21875 -34.4375 C 24.539062 -34.757812 25.078125 -35.269531 25.828125 -35.96875 C 26.578125 -36.664062 27.242188 -37.390625 27.828125 -38.140625 C 28.421875 -38.890625 28.664062 -39.476562 28.5625 -39.90625 Z M 28.5625 -39.90625 "/></g></g><g style="fill:#371a45;fill-opacity:1;"><g transform="translate(88.170184, 69.316607)"><path style="stroke:none" d="M 44.734375 -51.25 C 46.015625 -49.15625 46.894531 -46.804688 47.375 -44.203125 C 47.863281 -41.609375 48.082031 -38.984375 48.03125 -36.328125 C 47.976562 -33.671875 47.765625 -31.1875 47.390625 -28.875 C 46.847656 -25.34375 45.742188 -21.992188 44.078125 -18.828125 C 42.421875 -15.660156 40.195312 -12.925781 37.40625 -10.625 C 34.726562 -8.425781 31.617188 -6.816406 28.078125 -5.796875 C 24.535156 -4.773438 21.078125 -4.800781 17.703125 -5.875 C 15.453125 -6.570312 13.492188 -7.722656 11.828125 -9.328125 C 10.160156 -10.941406 8.765625 -12.78125 7.640625 -14.84375 C 6.515625 -16.90625 5.6875 -19.007812 5.15625 -21.15625 C 4.507812 -23.519531 4.128906 -26.242188 4.015625 -29.328125 C 3.910156 -32.410156 4.125 -35.5625 4.65625 -38.78125 C 5.195312 -42 6.082031 -45 7.3125 -47.78125 C 8.550781 -50.570312 10.21875 -52.878906 12.3125 -54.703125 C 14.457031 -56.898438 17.03125 -58.453125 20.03125 -59.359375 C 23.03125 -60.273438 26.113281 -60.585938 29.28125 -60.296875 C 32.445312 -60.003906 35.394531 -59.09375 38.125 -57.5625 C 40.863281 -56.03125 43.066406 -53.925781 44.734375 -51.25 Z M 30.09375 -19.953125 C 31.914062 -21.671875 33.269531 -23.664062 34.15625 -25.9375 C 35.039062 -28.21875 35.585938 -30.601562 35.796875 -33.09375 C 36.015625 -35.59375 35.960938 -38.023438 35.640625 -40.390625 C 35.316406 -42.742188 34.390625 -44.671875 32.859375 -46.171875 C 31.335938 -47.679688 29.316406 -48.410156 26.796875 -48.359375 C 25.398438 -48.359375 24.039062 -48.007812 22.71875 -47.3125 C 21.40625 -46.613281 20.320312 -45.703125 19.46875 -44.578125 C 18.5 -43.234375 17.800781 -41.617188 17.375 -39.734375 C 16.945312 -37.859375 16.625 -36.117188 16.40625 -34.515625 C 15.925781 -30.921875 16.113281 -27.378906 16.96875 -23.890625 C 17.238281 -22.867188 17.601562 -21.847656 18.0625 -20.828125 C 18.519531 -19.816406 19.175781 -18.988281 20.03125 -18.34375 C 21.425781 -17.320312 23.019531 -16.957031 24.8125 -17.25 C 26.613281 -17.550781 28.1875 -18.265625 29.53125 -19.390625 C 29.6875 -19.546875 29.875 -19.734375 30.09375 -19.953125 Z M 30.09375 -19.953125 "/></g></g><g style="fill:#371a45;fill-opacity:1;"><g transform="translate(133.137936, 69.316607)"><path style="stroke:none" d="M 30.015625 -34.921875 C 33.015625 -32.878906 35.382812 -30.207031 37.125 -26.90625 C 38.875 -23.613281 39.5625 -20.144531 39.1875 -16.5 C 38.8125 -13.28125 37.707031 -10.503906 35.875 -8.171875 C 34.050781 -5.835938 31.8125 -4.039062 29.15625 -2.78125 C 26.507812 -1.519531 23.695312 -0.820312 20.71875 -0.6875 C 17.738281 -0.550781 14.878906 -1.046875 12.140625 -2.171875 C 9.410156 -3.296875 7.109375 -5.09375 5.234375 -7.5625 C 4.265625 -8.851562 3.859375 -10.0625 4.015625 -11.1875 C 4.179688 -12.3125 4.679688 -13.300781 5.515625 -14.15625 C 6.347656 -15.019531 7.378906 -15.625 8.609375 -15.96875 C 9.835938 -16.320312 11.082031 -16.335938 12.34375 -16.015625 C 13.601562 -15.691406 14.691406 -14.910156 15.609375 -13.671875 C 16.035156 -13.085938 16.835938 -12.753906 18.015625 -12.671875 C 19.203125 -12.585938 20.382812 -12.640625 21.5625 -12.828125 C 22.738281 -13.015625 23.570312 -13.21875 24.0625 -13.4375 C 25.1875 -13.96875 26.03125 -14.753906 26.59375 -15.796875 C 27.15625 -16.847656 27.351562 -17.992188 27.1875 -19.234375 C 27.03125 -20.734375 26.492188 -21.976562 25.578125 -22.96875 C 24.671875 -23.957031 23.585938 -24.800781 22.328125 -25.5 C 21.066406 -26.195312 19.789062 -26.878906 18.5 -27.546875 C 17.21875 -28.222656 16.09375 -28.960938 15.125 -29.765625 C 12.445312 -32.128906 10.8125 -34.703125 10.21875 -37.484375 C 9.625 -40.273438 9.820312 -43.035156 10.8125 -45.765625 C 11.8125 -48.503906 13.351562 -51 15.4375 -53.25 C 17.53125 -55.507812 19.921875 -57.28125 22.609375 -58.5625 C 24.054688 -59.207031 25.394531 -59.382812 26.625 -59.09375 C 27.863281 -58.800781 28.925781 -58.195312 29.8125 -57.28125 C 30.695312 -56.375 31.296875 -55.328125 31.609375 -54.140625 C 31.929688 -52.960938 31.878906 -51.835938 31.453125 -50.765625 C 31.023438 -49.691406 30.113281 -48.804688 28.71875 -48.109375 C 27.8125 -47.679688 26.753906 -47.09375 25.546875 -46.34375 C 24.335938 -45.59375 23.34375 -44.691406 22.5625 -43.640625 C 21.789062 -42.597656 21.644531 -41.429688 22.125 -40.140625 C 22.394531 -39.285156 23.023438 -38.550781 24.015625 -37.9375 C 25.003906 -37.320312 26.0625 -36.769531 27.1875 -36.28125 C 28.3125 -35.800781 29.253906 -35.347656 30.015625 -34.921875 Z M 30.015625 -34.921875 "/></g></g><g style="fill:#371a45;fill-opacity:1;"><g transform="translate(169.256785, 69.316607)"><path style="stroke:none" d="M 33.546875 -17.0625 C 35.097656 -17 36.34375 -16.550781 37.28125 -15.71875 C 38.226562 -14.894531 38.847656 -13.878906 39.140625 -12.671875 C 39.429688 -11.460938 39.429688 -10.253906 39.140625 -9.046875 C 38.847656 -7.835938 38.226562 -6.84375 37.28125 -6.0625 C 36.34375 -5.289062 35.097656 -4.957031 33.546875 -5.0625 C 29.898438 -5.175781 26.253906 -5.148438 22.609375 -4.984375 C 18.960938 -4.828125 15.316406 -4.453125 11.671875 -3.859375 C 10.535156 -3.648438 9.351562 -3.742188 8.125 -4.140625 C 6.894531 -4.546875 5.863281 -5.203125 5.03125 -6.109375 C 4.195312 -7.023438 3.890625 -8.207031 4.109375 -9.65625 C 5.015625 -17.113281 6.015625 -24.539062 7.109375 -31.9375 C 8.210938 -39.34375 9.410156 -46.71875 10.703125 -54.0625 C 10.859375 -54.976562 11.179688 -55.785156 11.671875 -56.484375 C 12.097656 -57.234375 12.710938 -57.847656 13.515625 -58.328125 C 14.316406 -58.804688 15.3125 -59.078125 16.5 -59.140625 C 22.289062 -59.347656 28.082031 -59.238281 33.875 -58.8125 C 35.425781 -58.707031 36.671875 -58.210938 37.609375 -57.328125 C 38.546875 -56.441406 39.160156 -55.394531 39.453125 -54.1875 C 39.753906 -52.976562 39.753906 -51.78125 39.453125 -50.59375 C 39.160156 -49.414062 38.546875 -48.453125 37.609375 -47.703125 C 36.671875 -46.953125 35.425781 -46.632812 33.875 -46.75 C 29.90625 -47.007812 25.851562 -47.140625 21.71875 -47.140625 C 21.445312 -45.585938 21.175781 -44.03125 20.90625 -42.46875 C 20.644531 -40.914062 20.40625 -39.363281 20.1875 -37.8125 C 22.394531 -37.757812 24.515625 -37.648438 26.546875 -37.484375 C 28.160156 -37.273438 29.566406 -36.660156 30.765625 -35.640625 C 31.972656 -34.617188 32.578125 -33.222656 32.578125 -31.453125 C 32.578125 -30.429688 32.296875 -29.4375 31.734375 -28.46875 C 31.171875 -27.507812 30.429688 -26.734375 29.515625 -26.140625 C 28.609375 -25.554688 27.617188 -25.316406 26.546875 -25.421875 C 23.816406 -25.691406 21.082031 -25.800781 18.34375 -25.75 C 18.125 -24.25 17.90625 -22.734375 17.6875 -21.203125 C 17.476562 -19.671875 17.269531 -18.128906 17.0625 -16.578125 C 19.789062 -16.835938 22.519531 -17.019531 25.25 -17.125 C 27.988281 -17.238281 30.753906 -17.21875 33.546875 -17.0625 Z M 33.546875 -17.0625 "/></g></g></g></g><path style=" stroke:none;fill-rule:nonzero;fill:#ffffff;fill-opacity:1;" d="M 346.71875 121.472656 C 343.339844 127.300781 330.835938 130.75 330.496094 130.921875 C 330.300781 131.023438 324.125 114.5625 318.847656 100.597656 C 315.039062 90.53125 311.703125 81.765625 311.398438 81.4375 C 310.683594 80.652344 305.328125 70.796875 305.328125 70.796875 L 308.78125 67.824219 C 308.9375 67.878906 311.269531 67.449219 314.15625 66.875 C 316.40625 66.429688 318.992188 65.898438 321.152344 65.453125 C 322.480469 65.175781 323.816406 65.339844 324.996094 65.859375 C 326.257812 66.414062 327.335938 67.378906 328.023438 68.660156 C 330.410156 73.117188 334.304688 80.488281 337.75 87.546875 C 338.804688 89.699219 339.816406 91.824219 340.726562 93.828125 C 342.285156 97.246094 343.554688 100.3125 344.269531 102.5625 C 344.507812 103.304688 344.550781 104.105469 344.339844 104.859375 C 344.132812 105.601562 343.671875 106.417969 342.664062 106.902344 C 342.664062 106.902344 347.078125 112.09375 347.5625 117.140625 C 347.699219 118.644531 347.496094 120.132812 346.71875 121.472656 Z M 346.71875 121.472656 "/><path style=" stroke:none;fill-rule:nonzero;fill:#371a45;fill-opacity:0.3;" d="M 346.71875 121.472656 C 343.339844 127.300781 330.835938 130.75 330.496094 130.921875 C 330.300781 131.023438 324.125 114.5625 318.847656 100.597656 C 321.4375 96.492188 326.351562 91.582031 327.203125 91.066406 C 327.894531 90.644531 334.269531 88.625 337.75 87.546875 C 338.804688 89.703125 339.816406 91.824219 340.726562 93.828125 L 340.527344 94.867188 C 340.527344 94.867188 330.046875 94.921875 333.65625 103.800781 C 337.257812 112.6875 340.410156 113.363281 339.171875 116.628906 C 337.9375 119.886719 342.039062 125.160156 347.5625 117.140625 C 347.699219 118.644531 347.496094 120.132812 346.71875 121.472656 Z M 346.71875 121.472656 "/><path style=" stroke:none;fill-rule:nonzero;fill:#371a45;fill-opacity:1;" d="M 330.492188 131.9375 C 330.371094 131.9375 330.246094 131.914062 330.128906 131.871094 C 329.566406 131.65625 329.554688 131.652344 326.527344 123.75 C 324.804688 119.25 322.492188 113.121094 320.253906 107.195312 C 316.003906 95.941406 311.191406 83.203125 310.574219 82.027344 C 309.664062 80.855469 305.667969 73.546875 304.4375 71.28125 C 304.167969 70.789062 304.351562 70.175781 304.84375 69.90625 C 305.335938 69.640625 305.949219 69.820312 306.21875 70.3125 C 308.746094 74.964844 311.6875 80.207031 312.15625 80.761719 C 312.542969 81.1875 313.761719 84.261719 322.148438 106.480469 C 325.773438 116.078125 329.828125 126.8125 331.023438 129.679688 C 341.488281 126.269531 344.800781 122.761719 345.84375 120.960938 C 348.824219 115.824219 341.960938 107.640625 341.890625 107.558594 C 341.6875 107.320312 341.605469 107 341.671875 106.691406 C 341.738281 106.382812 341.941406 106.125 342.226562 105.988281 C 342.808594 105.710938 343.179688 105.253906 343.363281 104.589844 C 343.511719 104.054688 343.492188 103.457031 343.304688 102.867188 C 340.804688 94.980469 331.160156 76.652344 327.128906 69.140625 C 326.023438 67.078125 323.648438 65.96875 321.355469 66.445312 C 309.023438 68.996094 308.8125 68.917969 308.425781 68.773438 C 307.902344 68.578125 307.632812 67.996094 307.828125 67.46875 C 307.992188 67.035156 308.417969 66.777344 308.859375 66.8125 C 309.191406 66.785156 311.027344 66.511719 320.945312 64.460938 C 324.113281 63.804688 327.390625 65.335938 328.917969 68.183594 C 333.957031 77.578125 342.78125 94.492188 345.238281 102.253906 C 345.542969 103.21875 345.570312 104.214844 345.316406 105.128906 C 345.097656 105.929688 344.691406 106.601562 344.132812 107.121094 C 345.988281 109.585938 350.667969 116.683594 347.597656 121.976562 C 345.496094 125.605469 339.859375 128.972656 331.304688 131.71875 C 331.105469 131.785156 330.96875 131.828125 330.902344 131.851562 C 330.769531 131.910156 330.632812 131.9375 330.492188 131.9375 Z M 330.964844 131.824219 C 330.945312 131.832031 330.925781 131.84375 330.910156 131.851562 C 330.933594 131.839844 330.953125 131.828125 330.964844 131.824219 Z M 310.648438 82.117188 C 310.648438 82.117188 310.648438 82.117188 310.648438 82.121094 C 310.648438 82.117188 310.648438 82.117188 310.648438 82.117188 Z M 310.644531 82.113281 C 310.644531 82.113281 310.644531 82.117188 310.648438 82.117188 C 310.644531 82.117188 310.644531 82.113281 310.644531 82.113281 Z M 310.558594 81.996094 Z M 309.132812 66.875 Z M 309.128906 66.871094 C 309.128906 66.871094 309.128906 66.871094 309.128906 66.875 C 309.128906 66.875 309.128906 66.871094 309.128906 66.871094 Z M 309.128906 66.871094 "/><path style=" stroke:none;fill-rule:nonzero;fill:#ffffff;fill-opacity:1;" d="M 344.605469 163.117188 C 342.597656 162.855469 340.34375 161.644531 337.933594 158.96875 C 337.933594 158.96875 330.09375 160.742188 321.847656 159.902344 C 315.414062 159.242188 308.734375 156.996094 305.328125 151.085938 C 304.785156 150.148438 304.328125 149.117188 303.964844 147.992188 C 298.386719 130.59375 328.019531 134.5625 328.019531 134.5625 L 329.917969 136.601562 L 331.398438 138.195312 C 331.398438 138.195312 340.75 134.816406 344.863281 135.71875 C 348.976562 136.617188 353.59375 151.089844 353.761719 154.636719 C 353.886719 157.246094 350.199219 163.847656 344.605469 163.117188 Z M 344.605469 163.117188 "/><path style=" stroke:none;fill-rule:nonzero;fill:#371a45;fill-opacity:1;" d="M 345.449219 164.191406 C 343.253906 164.191406 340.554688 163.222656 337.578125 160.082031 C 335.707031 160.453125 329.632812 161.503906 322.964844 161.015625 C 312.320312 160.238281 305.414062 155.839844 303 148.300781 C 301.6875 144.210938 302.101562 140.847656 304.226562 138.308594 C 310.152344 131.238281 327.421875 133.460938 328.152344 133.558594 C 328.386719 133.589844 328.601562 133.699219 328.761719 133.871094 L 331.691406 137.019531 C 333.921875 136.261719 341.332031 133.90625 345.078125 134.726562 C 347.246094 135.199219 349.484375 138.253906 351.730469 143.800781 C 353.339844 147.773438 354.675781 152.511719 354.777344 154.585938 C 354.894531 157.078125 352.390625 161.945312 348.347656 163.609375 C 347.527344 163.945312 346.550781 164.191406 345.449219 164.191406 Z M 337.933594 157.957031 C 338.214844 157.957031 338.492188 158.078125 338.6875 158.292969 C 341.78125 161.730469 344.773438 162.886719 347.578125 161.734375 C 350.75 160.429688 352.828125 156.378906 352.75 154.683594 C 352.570312 150.90625 347.902344 137.421875 344.644531 136.707031 C 341.507812 136.019531 334.269531 138.234375 331.742188 139.148438 C 331.359375 139.285156 330.933594 139.179688 330.65625 138.882812 L 327.527344 135.523438 C 325.070312 135.25 310.566406 133.898438 305.78125 139.609375 C 304.109375 141.609375 303.828125 144.25 304.929688 147.679688 C 310.164062 164.007812 337.433594 158.042969 337.707031 157.980469 C 337.78125 157.964844 337.859375 157.957031 337.933594 157.957031 Z M 337.933594 157.957031 "/><path style=" stroke:none;fill-rule:nonzero;fill:#ffffff;fill-opacity:1;" d="M 363.28125 97.429688 C 361.933594 100.519531 354.6875 105.804688 351.410156 101.726562 C 351.40625 101.722656 351.402344 101.714844 351.394531 101.707031 C 348.183594 102.890625 342.28125 98.375 344.863281 94.050781 C 344.863281 94.050781 337.539062 91.347656 324.976562 93.9375 C 324.976562 93.9375 334.664062 113.136719 334.324219 124.175781 C 333.988281 135.210938 324.976562 142.304688 314.835938 146.359375 C 304.699219 150.414062 303.796875 150.863281 298.953125 158.519531 C 294.105469 166.175781 292.078125 173.609375 285.433594 172.933594 C 281.058594 172.492188 273.074219 164.929688 268.125 159.808594 C 266.5625 158.191406 265.304688 156.820312 264.554688 155.988281 C 264.0625 155.449219 263.929688 154.671875 264.214844 153.996094 C 265.332031 151.363281 268.886719 145.457031 277.007812 150.355469 C 277.007812 150.355469 282.332031 140.050781 286.558594 134.5625 C 279.449219 128.296875 275.183594 118.214844 274.535156 103.277344 C 274.535156 103.277344 274.101562 103.25 273.328125 103.191406 C 268.335938 102.824219 249.105469 101.300781 239.351562 99.0625 C 239.351562 99.0625 236.589844 102.441406 234.734375 104.410156 C 233.433594 105.789062 231.550781 104.519531 231.527344 101.296875 C 231.515625 99.914062 231.84375 98.179688 232.707031 96.132812 C 232.707031 96.132812 232.054688 90.429688 226.140625 90.351562 C 226.140625 90.351562 223.632812 92.613281 222.621094 93.910156 C 221.605469 95.203125 217.523438 91.179688 221.15625 87.914062 C 221.15625 87.914062 218.367188 86.054688 221.296875 83.210938 C 224.226562 80.367188 231.042969 79.371094 237.632812 82.242188 C 237.632812 82.242188 253.558594 81.355469 264.226562 80.59375 C 274.898438 79.832031 306.273438 73.273438 306.273438 73.273438 C 306.273438 73.273438 308.269531 72.988281 311.5625 72.726562 C 319.433594 72.089844 334.707031 71.570312 347.734375 75.300781 C 366.210938 80.59375 364.632812 94.332031 363.28125 97.429688 Z M 363.28125 97.429688 "/><path style=" stroke:none;fill-rule:nonzero;fill:#371a45;fill-opacity:0.3;" d="M 347.960938 92.828125 L 344.863281 94.050781 C 344.863281 94.050781 337.539062 91.347656 324.976562 93.9375 C 324.976562 93.9375 334.664062 113.136719 334.324219 124.171875 C 333.988281 135.210938 324.976562 142.304688 314.835938 146.359375 C 304.699219 150.414062 303.796875 150.863281 298.953125 158.519531 C 294.105469 166.175781 292.078125 173.609375 285.433594 172.933594 C 281.058594 172.488281 273.074219 164.929688 268.125 159.808594 C 268.128906 159.8125 268.132812 159.8125 268.136719 159.816406 C 274.046875 163.367188 279.460938 165.390625 285.207031 164.039062 C 290.949219 162.6875 290.273438 142.417969 311.570312 133.800781 C 332.863281 125.1875 321.582031 109.261719 321.582031 109.261719 L 318.195312 101.980469 C 323.023438 98.765625 319.210938 95.410156 319.210938 95.410156 C 315.472656 93.785156 316.75 90.390625 316.75 90.390625 C 337.367188 85.886719 347.960938 92.828125 347.960938 92.828125 Z M 347.960938 92.828125 "/><path style=" stroke:none;fill-rule:nonzero;fill:#371a45;fill-opacity:1;" d="M 286.269531 173.992188 C 285.964844 173.992188 285.652344 173.976562 285.328125 173.941406 C 279.4375 173.34375 268.3125 161.660156 263.800781 156.667969 C 263.050781 155.832031 262.84375 154.628906 263.28125 153.601562 C 264.007812 151.890625 265.707031 148.867188 268.933594 147.824219 C 271.203125 147.085938 273.777344 147.46875 276.597656 148.957031 C 277.941406 146.417969 281.789062 139.332031 285.195312 134.691406 C 278.210938 128.117188 274.304688 117.878906 273.566406 104.226562 C 269.136719 103.90625 250.019531 102.433594 239.738281 100.1875 C 238.902344 101.199219 236.929688 103.558594 235.46875 105.105469 C 234.566406 106.0625 233.320312 106.246094 232.289062 105.574219 C 230.558594 104.449219 229.644531 100.984375 231.65625 96.011719 C 231.472656 95.0625 230.535156 91.644531 226.519531 91.378906 C 225.832031 92.011719 224.167969 93.582031 223.417969 94.535156 C 223.011719 95.054688 222.378906 95.273438 221.679688 95.132812 C 220.464844 94.886719 219.238281 93.5625 218.824219 92.050781 C 218.585938 91.171875 218.433594 89.570312 219.734375 87.941406 C 219.375 87.492188 219.03125 86.863281 218.957031 86.0625 C 218.84375 84.847656 219.394531 83.644531 220.589844 82.484375 C 223.582031 79.578125 230.613281 78.167969 237.8125 81.214844 C 239.839844 81.101562 254.320312 80.285156 264.152344 79.582031 C 274.632812 78.835938 305.753906 72.347656 306.066406 72.28125 C 306.085938 72.277344 306.109375 72.273438 306.128906 72.269531 C 306.363281 72.238281 329.542969 69.035156 348.011719 74.328125 C 355.707031 76.53125 360.898438 80.378906 363.433594 85.765625 C 365.734375 90.652344 365.160156 95.660156 364.210938 97.835938 C 363.097656 100.378906 359.03125 103.699219 355.449219 104.167969 C 353.6875 104.398438 352.183594 103.941406 351.054688 102.84375 C 348.992188 103.203125 346.382812 102.101562 344.695312 100.070312 C 343.324219 98.417969 342.894531 96.484375 343.460938 94.703125 C 341.164062 94.132812 335.195312 93.089844 326.46875 94.679688 C 328.597656 99.105469 335.636719 114.515625 335.339844 124.203125 C 335.175781 129.585938 333.035156 134.429688 328.984375 138.589844 C 325.597656 142.070312 320.964844 145 315.210938 147.300781 C 305.355469 151.238281 304.550781 151.5625 299.808594 159.0625 C 298.714844 160.785156 297.777344 162.484375 296.871094 164.125 C 293.960938 169.398438 291.421875 173.992188 286.269531 173.992188 Z M 271.273438 149.488281 C 270.671875 149.488281 270.101562 149.574219 269.558594 149.75 C 267.097656 150.546875 265.738281 153 265.148438 154.394531 C 265.019531 154.699219 265.082031 155.058594 265.308594 155.308594 C 272.304688 163.058594 281.292969 171.496094 285.53125 171.925781 C 289.789062 172.359375 291.839844 169.042969 295.09375 163.148438 C 296.015625 161.476562 296.96875 159.753906 298.09375 157.980469 C 303.046875 150.148438 304.144531 149.539062 314.457031 145.417969 C 322.867188 142.054688 332.960938 135.636719 333.3125 124.144531 C 333.640625 113.492188 324.164062 94.585938 324.070312 94.394531 C 323.925781 94.113281 323.925781 93.78125 324.0625 93.496094 C 324.199219 93.210938 324.460938 93.007812 324.769531 92.945312 C 337.46875 90.328125 344.902344 92.984375 345.210938 93.101562 C 345.496094 93.203125 345.714844 93.429688 345.816406 93.714844 C 345.917969 93.996094 345.886719 94.3125 345.730469 94.570312 C 344.648438 96.378906 345.597656 97.980469 346.253906 98.777344 C 347.546875 100.332031 349.738281 101.238281 351.042969 100.757812 C 351.453125 100.605469 351.914062 100.734375 352.1875 101.078125 C 352.902344 101.976562 353.882812 102.328125 355.1875 102.15625 C 358.164062 101.769531 361.585938 98.777344 362.351562 97.027344 C 362.867188 95.839844 363.839844 91.386719 361.597656 86.628906 C 359.320312 81.796875 354.5625 78.3125 347.453125 76.277344 C 329.710938 71.195312 307.417969 74.140625 306.445312 74.273438 C 304.742188 74.628906 274.835938 80.855469 264.296875 81.605469 C 253.742188 82.355469 237.847656 83.242188 237.6875 83.253906 C 237.527344 83.261719 237.371094 83.234375 237.226562 83.171875 C 230.992188 80.453125 224.589844 81.429688 222 83.941406 C 221.5 84.425781 220.914062 85.15625 220.972656 85.863281 C 221.03125 86.585938 221.71875 87.070312 221.722656 87.078125 C 221.976562 87.253906 222.140625 87.539062 222.160156 87.847656 C 222.179688 88.15625 222.0625 88.460938 221.832031 88.667969 C 220.558594 89.8125 220.578125 90.921875 220.820312 91.652344 C 221.085938 92.457031 221.65625 92.96875 221.964844 93.105469 C 223.082031 91.75 225.359375 89.6875 225.457031 89.597656 C 225.648438 89.425781 225.90625 89.328125 226.152344 89.335938 C 231.539062 89.414062 233.449219 93.742188 233.707031 96.019531 C 233.726562 96.191406 233.703125 96.367188 233.636719 96.527344 C 231.777344 100.933594 232.691406 103.421875 233.394531 103.878906 C 233.492188 103.941406 233.667969 104.058594 233.992188 103.714844 C 235.804688 101.796875 238.535156 98.457031 238.5625 98.421875 C 238.808594 98.125 239.199219 97.988281 239.578125 98.074219 C 250.636719 100.617188 274.363281 102.253906 274.601562 102.269531 C 275.117188 102.304688 275.523438 102.71875 275.546875 103.234375 C 276.152344 117.21875 280.082031 127.503906 287.226562 133.804688 C 287.625 134.15625 287.683594 134.757812 287.359375 135.179688 C 283.238281 140.535156 277.960938 150.71875 277.910156 150.820312 C 277.78125 151.070312 277.554688 151.253906 277.285156 151.332031 C 277.015625 151.40625 276.722656 151.367188 276.484375 151.222656 C 274.570312 150.066406 272.824219 149.488281 271.273438 149.488281 Z M 271.273438 149.488281 "/><path style=" stroke:none;fill-rule:nonzero;fill:#ffffff;fill-opacity:1;" d="M 318.195312 50.65625 C 318.195312 70.65625 301.972656 86.867188 281.964844 86.867188 C 277.363281 86.867188 272.960938 86.007812 268.910156 84.441406 C 268.90625 84.445312 268.90625 84.441406 268.902344 84.441406 C 255.351562 79.203125 245.738281 66.050781 245.738281 50.65625 C 245.738281 39.851562 250.472656 30.148438 257.984375 23.519531 C 264.371094 17.871094 272.769531 14.445312 281.964844 14.445312 C 301.972656 14.445312 318.195312 30.660156 318.195312 50.65625 Z M 318.195312 50.65625 "/><path style=" stroke:none;fill-rule:nonzero;fill:#371a45;fill-opacity:0.3;" d="M 318.195312 50.65625 C 318.195312 70.65625 301.972656 86.867188 281.964844 86.867188 C 277.363281 86.867188 272.960938 86.007812 268.910156 84.441406 C 268.90625 84.445312 268.90625 84.441406 268.902344 84.441406 C 267.285156 83.816406 265.722656 83.078125 264.226562 82.234375 C 266.328125 82.617188 268.492188 82.8125 270.699219 82.8125 C 290.707031 82.8125 306.929688 66.601562 306.929688 46.601562 C 306.929688 33.042969 299.472656 21.222656 288.433594 15.019531 C 305.355469 18.070312 318.195312 32.863281 318.195312 50.65625 Z M 318.195312 50.65625 "/><path style=" stroke:none;fill-rule:nonzero;fill:#371a45;fill-opacity:1;" d="M 293.734375 62.417969 C 292.414062 72.710938 279.40625 85.128906 268.910156 84.441406 C 268.90625 84.445312 268.90625 84.441406 268.902344 84.441406 C 255.351562 79.203125 245.738281 66.050781 245.738281 50.65625 C 245.738281 39.851562 250.472656 30.148438 257.984375 23.519531 C 271.238281 22.597656 287.121094 31.382812 292.4375 45.253906 Z M 293.734375 62.417969 "/><path style=" stroke:none;fill-rule:nonzero;fill:#371a45;fill-opacity:1;" d="M 293.730469 62.417969 C 292.414062 72.710938 279.40625 85.128906 268.910156 84.441406 C 268.90625 84.445312 268.90625 84.441406 268.902344 84.441406 C 266.320312 83.441406 263.882812 82.160156 261.628906 80.628906 C 277.121094 76.519531 288.539062 62.40625 288.539062 45.625 C 288.539062 42.578125 288.160156 39.617188 287.449219 36.789062 C 289.539062 39.320312 291.25 42.164062 292.4375 45.253906 Z M 293.730469 62.417969 "/><path style=" stroke:none;fill-rule:nonzero;fill:#371a45;fill-opacity:1;" d="M 269.753906 85.484375 C 269.445312 85.484375 269.140625 85.472656 268.839844 85.453125 C 268.28125 85.417969 267.855469 84.933594 267.894531 84.375 C 267.929688 83.816406 268.40625 83.390625 268.972656 83.429688 C 279.285156 84.117188 291.4375 71.796875 292.710938 62.390625 L 291.4375 45.476562 C 285.988281 31.484375 269.894531 23.710938 258.050781 24.527344 C 257.492188 24.570312 257.007812 24.148438 256.96875 23.589844 C 256.929688 23.03125 257.351562 22.546875 257.910156 22.507812 C 264.628906 22.042969 272.210938 24.035156 278.710938 27.972656 C 285.589844 32.144531 290.800781 38.152344 293.382812 44.890625 C 293.417969 44.984375 293.441406 45.078125 293.449219 45.175781 L 294.742188 62.34375 C 294.746094 62.414062 294.746094 62.480469 294.738281 62.550781 C 294.078125 67.714844 290.601562 73.601562 285.441406 78.300781 C 280.386719 82.902344 274.722656 85.484375 269.753906 85.484375 Z M 269.753906 85.484375 "/><path style=" stroke:none;fill-rule:nonzero;fill:#371a45;fill-opacity:1;" d="M 280.132812 87.835938 C 279.621094 87.835938 279.183594 87.449219 279.125 86.933594 C 279.066406 86.375 279.46875 85.875 280.027344 85.816406 C 288.320312 84.917969 296.242188 73.007812 298.125 65.101562 L 296.105469 42.003906 C 291.746094 29.050781 277.871094 19.960938 266.933594 18.652344 C 266.378906 18.585938 265.980469 18.082031 266.050781 17.523438 C 266.117188 16.96875 266.621094 16.570312 267.175781 16.640625 C 278.773438 18.027344 293.496094 27.699219 298.066406 41.480469 C 298.089844 41.554688 298.105469 41.632812 298.113281 41.710938 L 300.160156 65.085938 C 300.167969 65.191406 300.160156 65.296875 300.136719 65.402344 C 298.140625 74.082031 289.609375 86.816406 280.246094 87.832031 C 280.207031 87.832031 280.167969 87.835938 280.132812 87.835938 Z M 280.132812 87.835938 "/><path style=" stroke:none;fill-rule:nonzero;fill:#ffffff;fill-opacity:1;" d="M 313.640625 53.167969 C 313.640625 53.972656 313.5625 54.769531 313.40625 55.558594 C 313.253906 56.347656 313.027344 57.117188 312.722656 57.859375 C 312.421875 58.605469 312.050781 59.3125 311.613281 59.980469 C 311.175781 60.652344 310.675781 61.269531 310.117188 61.839844 C 309.5625 62.410156 308.953125 62.917969 308.296875 63.367188 C 307.640625 63.8125 306.949219 64.191406 306.21875 64.5 C 305.488281 64.808594 304.738281 65.039062 303.964844 65.199219 C 303.191406 65.355469 302.410156 65.433594 301.621094 65.433594 C 300.832031 65.433594 300.046875 65.355469 299.273438 65.199219 C 298.5 65.039062 297.75 64.808594 297.019531 64.5 C 296.289062 64.191406 295.597656 63.8125 294.941406 63.367188 C 294.285156 62.917969 293.679688 62.410156 293.121094 61.839844 C 292.5625 61.269531 292.0625 60.652344 291.625 59.980469 C 291.1875 59.3125 290.816406 58.605469 290.515625 57.859375 C 290.210938 57.117188 289.984375 56.347656 289.832031 55.558594 C 289.675781 54.769531 289.601562 53.972656 289.601562 53.167969 C 289.601562 52.359375 289.675781 51.5625 289.832031 50.773438 C 289.984375 49.984375 290.210938 49.214844 290.515625 48.472656 C 290.816406 47.726562 291.1875 47.019531 291.625 46.351562 C 292.0625 45.679688 292.5625 45.0625 293.121094 44.492188 C 293.679688 43.921875 294.285156 43.414062 294.941406 42.964844 C 295.597656 42.519531 296.289062 42.140625 297.019531 41.832031 C 297.75 41.523438 298.5 41.292969 299.273438 41.132812 C 300.046875 40.976562 300.832031 40.898438 301.621094 40.898438 C 302.410156 40.898438 303.191406 40.976562 303.964844 41.132812 C 304.738281 41.292969 305.488281 41.523438 306.21875 41.832031 C 306.949219 42.140625 307.640625 42.519531 308.296875 42.964844 C 308.953125 43.414062 309.5625 43.921875 310.117188 44.492188 C 310.675781 45.0625 311.175781 45.679688 311.613281 46.351562 C 312.050781 47.019531 312.421875 47.726562 312.722656 48.472656 C 313.027344 49.214844 313.253906 49.984375 313.40625 50.773438 C 313.5625 51.5625 313.640625 52.359375 313.640625 53.167969 Z M 313.640625 53.167969 "/><path style=" stroke:none;fill-rule:nonzero;fill:#371a45;fill-opacity:0.3;" d="M 313.636719 53.164062 C 313.636719 59.941406 308.257812 65.433594 301.617188 65.433594 C 296.421875 65.433594 291.988281 62.0625 290.316406 57.347656 C 292.46875 59.429688 295.375 60.707031 298.578125 60.707031 C 305.214844 60.707031 310.597656 55.210938 310.597656 48.4375 C 310.597656 46.964844 310.34375 45.5625 309.878906 44.257812 C 312.195312 46.492188 313.636719 49.660156 313.636719 53.164062 Z M 313.636719 53.164062 "/><path style=" stroke:none;fill-rule:nonzero;fill:#371a45;fill-opacity:1;" d="M 301.621094 66.449219 C 294.433594 66.449219 288.585938 60.488281 288.585938 53.167969 C 288.585938 45.84375 294.433594 39.886719 301.621094 39.886719 C 308.804688 39.886719 314.652344 45.84375 314.652344 53.167969 C 314.652344 60.488281 308.804688 66.449219 301.621094 66.449219 Z M 301.621094 41.910156 C 295.550781 41.910156 290.613281 46.960938 290.613281 53.167969 C 290.613281 59.371094 295.550781 64.421875 301.621094 64.421875 C 307.6875 64.421875 312.625 59.371094 312.625 53.167969 C 312.625 46.960938 307.6875 41.910156 301.621094 41.910156 Z M 301.621094 41.910156 "/><path style=" stroke:none;fill-rule:nonzero;fill:#371a45;fill-opacity:1;" d="M 303.535156 64.730469 C 297.417969 64.730469 292.445312 59.503906 292.445312 53.082031 C 292.445312 46.660156 297.417969 41.433594 303.535156 41.433594 C 309.648438 41.433594 314.625 46.660156 314.625 53.082031 C 314.625 59.503906 309.652344 64.730469 303.535156 64.730469 Z M 303.535156 43.40625 C 298.507812 43.40625 294.417969 47.746094 294.417969 53.082031 C 294.417969 58.417969 298.507812 62.757812 303.535156 62.757812 C 308.5625 62.757812 312.652344 58.417969 312.652344 53.082031 C 312.652344 47.746094 308.5625 43.40625 303.535156 43.40625 Z M 303.535156 43.40625 "/><g clip-rule="nonzero" clip-path="url(#d1e8ad55d3)"><path style=" stroke:none;fill-rule:nonzero;fill:#371a45;fill-opacity:1;" d="M 281.964844 88.050781 C 277.335938 88.050781 272.824219 87.214844 268.550781 85.570312 C 268.523438 85.5625 268.5 85.554688 268.476562 85.546875 C 261.511719 82.851562 255.558594 78.179688 251.269531 72.035156 C 246.875 65.746094 244.554688 58.351562 244.554688 50.65625 C 244.554688 39.941406 249.164062 29.726562 257.199219 22.632812 C 264.035156 16.589844 272.832031 13.265625 281.964844 13.265625 C 302.59375 13.265625 319.375 30.039062 319.375 50.65625 C 319.375 71.273438 302.59375 88.050781 281.964844 88.050781 Z M 269.265625 83.3125 C 269.289062 83.320312 269.3125 83.332031 269.335938 83.339844 C 273.359375 84.894531 277.605469 85.683594 281.964844 85.683594 C 301.289062 85.683594 317.011719 69.972656 317.011719 50.65625 C 317.011719 31.34375 301.289062 15.628906 281.964844 15.628906 C 273.40625 15.628906 265.167969 18.746094 258.765625 24.402344 C 251.238281 31.050781 246.921875 40.621094 246.921875 50.65625 C 246.921875 65 255.898438 78.117188 269.265625 83.3125 Z M 269.265625 83.3125 "/></g><path style=" stroke:none;fill-rule:nonzero;fill:#ffffff;fill-opacity:0.5;" d="M 250.957031 56.609375 C 250.957031 56.609375 246.777344 41.046875 260.195312 28.230469 C 260.195312 28.230469 268.085938 26.992188 275.855469 32.847656 C 263.855469 32.378906 256.027344 41.371094 250.957031 56.609375 Z M 250.957031 56.609375 "/><path style=" stroke:none;fill-rule:nonzero;fill:#ffffff;fill-opacity:0.5;" d="M 277.425781 74.539062 C 275.738281 77.058594 272.964844 77.445312 271.027344 76.148438 C 269.085938 74.851562 269.257812 72.71875 270.945312 70.199219 C 272.632812 67.679688 274.820312 67.234375 276.757812 68.535156 C 278.695312 69.832031 279.117188 72.019531 277.425781 74.539062 Z M 277.425781 74.539062 "/><path style=" stroke:none;fill-rule:nonzero;fill:#ffffff;fill-opacity:0.5;" d="M 285.289062 61.558594 C 285.289062 62.03125 285.203125 62.484375 285.035156 62.917969 C 284.867188 63.351562 284.625 63.734375 284.316406 64.070312 C 284.003906 64.402344 283.644531 64.65625 283.238281 64.835938 C 282.828125 65.019531 282.40625 65.109375 281.964844 65.109375 C 281.523438 65.109375 281.101562 65.019531 280.695312 64.835938 C 280.285156 64.65625 279.925781 64.402344 279.617188 64.070312 C 279.304688 63.734375 279.0625 63.351562 278.894531 62.917969 C 278.726562 62.484375 278.640625 62.03125 278.640625 61.558594 C 278.640625 61.089844 278.726562 60.636719 278.894531 60.203125 C 279.0625 59.769531 279.304688 59.382812 279.617188 59.050781 C 279.925781 58.71875 280.285156 58.464844 280.695312 58.28125 C 281.101562 58.101562 281.523438 58.011719 281.964844 58.011719 C 282.40625 58.011719 282.828125 58.101562 283.238281 58.28125 C 283.644531 58.464844 284.003906 58.71875 284.316406 59.050781 C 284.625 59.382812 284.867188 59.769531 285.035156 60.203125 C 285.203125 60.636719 285.289062 61.089844 285.289062 61.558594 Z M 285.289062 61.558594 "/><path style=" stroke:none;fill-rule:nonzero;fill:#ffffff;fill-opacity:1;" d="M 311.210938 117.453125 L 280.308594 125.175781 C 279.160156 125.460938 278.007812 125.09375 277.238281 124.308594 C 276.820312 123.890625 276.515625 123.355469 276.378906 122.742188 L 272.871094 106.824219 C 272.496094 105.109375 273.5625 103.40625 275.273438 103 L 296.578125 97.917969 L 305.792969 95.71875 C 307.328125 95.351562 308.890625 96.15625 309.511719 97.605469 C 310.292969 99.425781 310.960938 101.457031 311.546875 103.65625 C 312.222656 106.160156 312.78125 108.875 313.269531 111.734375 C 313.390625 112.421875 313.503906 113.117188 313.613281 113.820312 C 313.871094 115.46875 312.832031 117.046875 311.210938 117.453125 Z M 311.210938 117.453125 "/><path style=" stroke:none;fill-rule:nonzero;fill:#00aaff;fill-opacity:1;" d="M 302.390625 105.597656 C 302.484375 105.863281 302.554688 106.132812 302.597656 106.40625 C 302.644531 106.683594 302.664062 106.957031 302.660156 107.234375 C 302.652344 107.511719 302.621094 107.78125 302.566406 108.050781 C 302.511719 108.316406 302.429688 108.574219 302.328125 108.820312 C 302.222656 109.066406 302.097656 109.300781 301.949219 109.519531 C 301.800781 109.734375 301.636719 109.933594 301.449219 110.113281 C 301.261719 110.292969 301.058594 110.453125 300.84375 110.585938 C 300.625 110.722656 300.394531 110.832031 300.152344 110.917969 C 299.914062 111.003906 299.664062 111.0625 299.410156 111.097656 C 299.15625 111.128906 298.902344 111.132812 298.640625 111.113281 C 298.382812 111.089844 298.128906 111.042969 297.875 110.96875 C 297.625 110.890625 297.378906 110.789062 297.144531 110.664062 C 296.90625 110.539062 296.683594 110.390625 296.46875 110.21875 C 296.257812 110.046875 296.0625 109.855469 295.882812 109.644531 C 295.707031 109.433594 295.546875 109.207031 295.40625 108.964844 C 295.269531 108.722656 295.152344 108.46875 295.058594 108.207031 C 294.964844 107.941406 294.894531 107.671875 294.847656 107.398438 C 294.804688 107.121094 294.785156 106.847656 294.789062 106.570312 C 294.792969 106.292969 294.824219 106.023438 294.882812 105.753906 C 294.9375 105.488281 295.015625 105.230469 295.121094 104.984375 C 295.222656 104.738281 295.351562 104.503906 295.496094 104.289062 C 295.644531 104.070312 295.8125 103.871094 296 103.691406 C 296.1875 103.511719 296.386719 103.351562 296.605469 103.21875 C 296.824219 103.082031 297.054688 102.972656 297.292969 102.886719 C 297.535156 102.800781 297.78125 102.742188 298.035156 102.707031 C 298.289062 102.675781 298.546875 102.671875 298.804688 102.691406 C 299.0625 102.714844 299.320312 102.761719 299.570312 102.839844 C 299.824219 102.914062 300.066406 103.015625 300.304688 103.140625 C 300.542969 103.265625 300.765625 103.414062 300.976562 103.585938 C 301.1875 103.757812 301.382812 103.949219 301.5625 104.160156 C 301.742188 104.371094 301.902344 104.597656 302.039062 104.839844 C 302.179688 105.082031 302.296875 105.335938 302.390625 105.597656 Z M 302.390625 105.597656 "/><path style=" stroke:none;fill-rule:nonzero;fill:#371a45;fill-opacity:1;" d="M 279.519531 126.285156 C 278.738281 126.285156 277.976562 126.066406 277.296875 125.648438 C 276.316406 125.039062 275.636719 124.085938 275.390625 122.957031 L 271.882812 107.042969 C 271.390625 104.804688 272.804688 102.546875 275.035156 102.015625 L 305.554688 94.734375 C 307.570312 94.253906 309.625 95.292969 310.441406 97.207031 C 312.152344 101.199219 313.476562 106.429688 314.613281 113.664062 C 314.957031 115.847656 313.597656 117.898438 311.457031 118.433594 L 280.554688 126.15625 C 280.210938 126.242188 279.863281 126.285156 279.519531 126.285156 Z M 306.539062 96.644531 C 306.367188 96.644531 306.199219 96.664062 306.027344 96.707031 L 275.507812 103.988281 C 274.34375 104.265625 273.605469 105.441406 273.863281 106.609375 L 277.371094 122.523438 C 277.5 123.109375 277.855469 123.609375 278.367188 123.925781 C 278.875 124.242188 279.480469 124.335938 280.0625 124.1875 L 310.96875 116.46875 C 312.085938 116.1875 312.792969 115.117188 312.613281 113.976562 C 311.503906 106.914062 310.222656 101.839844 308.582031 98.003906 C 308.21875 97.164062 307.410156 96.644531 306.539062 96.644531 Z M 275.273438 103 L 275.277344 103 Z M 275.273438 103 "/><path style=" stroke:none;fill-rule:nonzero;fill:#371a45;fill-opacity:1;" d="M 304.457031 120.152344 C 304.003906 120.152344 303.589844 119.84375 303.472656 119.382812 C 303.339844 118.839844 303.667969 118.289062 304.210938 118.15625 L 306.210938 117.65625 C 306.734375 117.523438 307.085938 117.039062 307.042969 116.503906 C 306.402344 108.429688 304.695312 102.519531 301.828125 98.445312 C 301.558594 98.0625 301.097656 97.882812 300.65625 97.988281 L 297.917969 98.640625 C 297.371094 98.769531 296.824219 98.433594 296.695312 97.890625 C 296.566406 97.347656 296.902344 96.800781 297.445312 96.667969 L 300.1875 96.015625 C 301.441406 95.714844 302.734375 96.210938 303.484375 97.277344 C 306.570312 101.660156 308.394531 107.898438 309.0625 116.34375 C 309.183594 117.871094 308.191406 119.25 306.703125 119.621094 L 304.703125 120.121094 C 304.621094 120.140625 304.539062 120.152344 304.457031 120.152344 Z M 304.457031 120.152344 "/><path style=" stroke:none;fill-rule:nonzero;fill:#371a45;fill-opacity:1;" d="M 294.835938 122.386719 C 294.449219 122.386719 294.101562 122.121094 294.011719 121.730469 L 291.957031 112.722656 L 284.886719 112.179688 C 284.527344 112.152344 284.226562 111.898438 284.132812 111.550781 L 281.523438 101.527344 C 281.40625 101.074219 281.679688 100.613281 282.128906 100.496094 C 282.582031 100.378906 283.042969 100.648438 283.160156 101.101562 L 285.617188 110.539062 L 292.707031 111.085938 C 293.074219 111.113281 293.382812 111.378906 293.464844 111.742188 L 295.660156 121.355469 C 295.761719 121.808594 295.476562 122.261719 295.023438 122.367188 C 294.960938 122.378906 294.898438 122.386719 294.835938 122.386719 Z M 294.835938 122.386719 "/><path style=" stroke:none;fill-rule:nonzero;fill:#371a45;fill-opacity:1;" d="M 298.949219 111.914062 C 298.210938 111.914062 297.46875 111.726562 296.773438 111.359375 C 295.636719 110.753906 294.765625 109.726562 294.320312 108.46875 C 293.871094 107.210938 293.898438 105.867188 294.398438 104.679688 C 294.90625 103.46875 295.839844 102.570312 297.03125 102.144531 C 298.222656 101.722656 299.515625 101.828125 300.675781 102.445312 C 301.8125 103.050781 302.683594 104.078125 303.132812 105.335938 C 303.582031 106.59375 303.554688 107.9375 303.054688 109.125 C 302.546875 110.335938 301.609375 111.238281 300.417969 111.660156 C 299.941406 111.828125 299.445312 111.914062 298.949219 111.914062 Z M 298.5 103.464844 C 298.179688 103.464844 297.863281 103.515625 297.558594 103.625 C 296.789062 103.898438 296.183594 104.492188 295.847656 105.289062 C 295.5 106.113281 295.484375 107.054688 295.800781 107.945312 C 296.117188 108.832031 296.726562 109.550781 297.515625 109.972656 C 298.277344 110.378906 299.125 110.453125 299.890625 110.179688 C 300.660156 109.90625 301.269531 109.316406 301.605469 108.515625 C 301.949219 107.691406 301.964844 106.75 301.648438 105.863281 C 301.335938 104.972656 300.726562 104.253906 299.9375 103.832031 C 299.476562 103.589844 298.984375 103.464844 298.5 103.464844 Z M 298.5 103.464844 "/><path style=" stroke:none;fill-rule:nonzero;fill:#ffffff;fill-opacity:1;" d="M 328.832031 104.359375 C 324.871094 109.117188 317.0625 111.050781 313.269531 111.734375 C 312.953125 111.792969 312.667969 111.839844 312.414062 111.878906 C 311.667969 112 310.949219 111.535156 310.746094 110.804688 L 309.292969 105.644531 C 309.039062 104.734375 309.683594 103.824219 310.625 103.75 C 310.9375 103.726562 311.246094 103.695312 311.550781 103.65625 C 312.460938 103.554688 313.347656 103.398438 314.203125 103.203125 C 314.207031 103.203125 314.207031 103.203125 314.207031 103.203125 C 318.074219 102.328125 321.335938 100.679688 323.464844 99.390625 C 324.140625 98.984375 324.695312 98.613281 325.125 98.316406 C 325.78125 97.863281 326.671875 98.007812 327.160156 98.632812 C 328.277344 100.074219 328.875 101.988281 329.136719 103.027344 C 329.257812 103.492188 329.144531 103.988281 328.832031 104.359375 Z M 328.832031 104.359375 "/><path style=" stroke:none;fill-rule:nonzero;fill:#371a45;fill-opacity:1;" d="M 311.855469 112.910156 C 310.722656 112.910156 309.695312 112.15625 309.378906 111.03125 L 307.863281 105.636719 C 307.652344 104.894531 307.789062 104.101562 308.230469 103.46875 C 308.675781 102.832031 309.375 102.433594 310.152344 102.375 C 316.988281 101.847656 322.6875 98.351562 324.820312 96.875 C 325.945312 96.09375 327.484375 96.332031 328.324219 97.414062 C 329.613281 99.070312 330.289062 101.234375 330.578125 102.378906 C 330.777344 103.179688 330.585938 104.035156 330.058594 104.671875 C 325.382812 110.277344 316.054688 112.28125 312.261719 112.878906 C 312.125 112.902344 311.988281 112.910156 311.855469 112.910156 Z M 325.976562 98.539062 C 323.707031 100.113281 317.636719 103.832031 310.308594 104.394531 C 310.078125 104.414062 309.949219 104.550781 309.894531 104.632812 C 309.839844 104.710938 309.753906 104.875 309.816406 105.089844 L 311.332031 110.484375 C 311.40625 110.753906 311.671875 110.921875 311.945312 110.878906 C 315.511719 110.3125 324.265625 108.453125 328.5 103.371094 C 328.613281 103.234375 328.65625 103.050781 328.609375 102.875 C 328.359375 101.886719 327.78125 100.023438 326.722656 98.660156 C 326.542969 98.425781 326.214844 98.375 325.976562 98.539062 Z M 325.976562 98.539062 "/><path style=" stroke:none;fill-rule:nonzero;fill:#371a45;fill-opacity:0.3;" d="M 328.832031 104.359375 C 324.871094 109.117188 317.0625 111.050781 313.269531 111.734375 C 313.390625 112.421875 313.503906 113.117188 313.613281 113.820312 C 313.871094 115.46875 312.832031 117.046875 311.210938 117.453125 L 280.308594 125.175781 C 279.160156 125.460938 278.007812 125.09375 277.238281 124.308594 C 294.164062 119.507812 307.421875 113.3125 296.578125 97.917969 L 305.792969 95.71875 C 307.328125 95.355469 308.890625 96.15625 309.511719 97.605469 C 310.292969 99.425781 310.960938 101.457031 311.546875 103.65625 C 312.460938 103.554688 313.347656 103.398438 314.203125 103.203125 C 314.105469 103.359375 311.632812 107.507812 315.058594 107.675781 C 318.554688 107.847656 325.550781 107.828125 323.464844 99.390625 C 324.140625 98.984375 324.695312 98.613281 325.125 98.316406 C 325.78125 97.863281 326.671875 98.007812 327.160156 98.632812 C 328.277344 100.074219 328.875 101.988281 329.136719 103.027344 C 329.257812 103.492188 329.144531 103.988281 328.832031 104.359375 Z M 328.832031 104.359375 "/><path style=" stroke:none;fill-rule:nonzero;fill:#371a45;fill-opacity:1;" d="M 277.730469 149.644531 C 279.019531 151.480469 280.167969 153.4375 280.894531 155.550781 C 279.605469 153.820312 277.988281 152.363281 276.289062 151.070312 C 275.070312 150.0625 276.738281 148.414062 277.730469 149.644531 Z M 277.730469 149.644531 "/><path style=" stroke:none;fill-rule:nonzero;fill:#371a45;fill-opacity:1;" d="M 285.730469 133.972656 C 289.136719 128.980469 295.839844 125.441406 301.597656 124.003906 C 298.878906 125.4375 296.242188 127.046875 293.84375 128.972656 C 291.496094 130.832031 289.398438 132.953125 287.382812 135.152344 C 286.566406 136.140625 285.054688 135.0625 285.730469 133.972656 Z M 285.730469 133.972656 "/><path style=" stroke:none;fill-rule:nonzero;fill:#371a45;fill-opacity:1;" d="M 302.871094 153.820312 C 302.800781 153.820312 302.726562 153.808594 302.65625 153.789062 C 290.058594 150.449219 283.21875 139.667969 282.933594 139.210938 C 282.6875 138.816406 282.808594 138.296875 283.203125 138.050781 C 283.601562 137.804688 284.121094 137.921875 284.367188 138.320312 C 284.433594 138.425781 291.15625 148.992188 303.089844 152.160156 C 303.539062 152.277344 303.808594 152.742188 303.6875 153.191406 C 303.585938 153.570312 303.246094 153.820312 302.871094 153.820312 Z M 302.871094 153.820312 "/><path style=" stroke:none;fill-rule:nonzero;fill:#371a45;fill-opacity:1;" d="M 273.046875 103.367188 L 272.796875 92.417969 C 272.796875 92.417969 275.0625 103.128906 275.0625 103.132812 C 275.304688 104.582031 273.144531 104.835938 273.046875 103.367188 Z M 273.046875 103.367188 "/><path style=" stroke:none;fill-rule:nonzero;fill:#371a45;fill-opacity:1;" d="M 251.394531 101.625 C 251.273438 101.625 251.148438 101.597656 251.03125 101.539062 C 250.609375 101.339844 250.433594 100.835938 250.632812 100.414062 C 254.554688 92.238281 250.648438 81.839844 250.605469 81.734375 C 250.441406 81.300781 250.65625 80.8125 251.09375 80.644531 C 251.527344 80.476562 252.015625 80.691406 252.183594 81.128906 C 252.359375 81.582031 256.394531 92.300781 252.15625 101.144531 C 252.011719 101.449219 251.710938 101.625 251.394531 101.625 Z M 251.394531 101.625 "/><path style=" stroke:none;fill-rule:nonzero;fill:#371a45;fill-opacity:1;" d="M 220.371094 87.273438 C 222.527344 85.304688 225.382812 84.085938 228.296875 83.972656 C 227.628906 84.179688 226.976562 84.402344 226.367188 84.71875 C 224.613281 85.597656 223.03125 86.925781 221.941406 88.554688 C 221.074219 89.882812 219.242188 88.398438 220.371094 87.273438 Z M 220.371094 87.273438 "/><path style=" stroke:none;fill-rule:nonzero;fill:#371a45;fill-opacity:1;" d="M 325.082031 94.945312 C 322.773438 94.902344 320.441406 95.273438 318.195312 95.796875 C 318.710938 95.503906 319.230469 95.21875 319.765625 94.949219 C 321.417969 94.125 323.101562 93.394531 324.902344 92.921875 C 326.441406 92.644531 326.644531 94.953125 325.082031 94.945312 Z M 325.082031 94.945312 "/><path style=" stroke:none;fill-rule:nonzero;fill:#371a45;fill-opacity:1;" d="M 336.523438 93.671875 C 336.171875 93.671875 335.847656 93.457031 335.722656 93.105469 C 332.324219 83.332031 337.09375 73.339844 337.300781 72.917969 C 337.503906 72.496094 338.007812 72.324219 338.429688 72.527344 C 338.847656 72.730469 339.023438 73.234375 338.820312 73.65625 C 338.773438 73.753906 334.152344 83.453125 337.320312 92.550781 C 337.472656 92.992188 337.238281 93.472656 336.800781 93.625 C 336.707031 93.660156 336.613281 93.671875 336.523438 93.671875 Z M 336.523438 93.671875 "/><path style=" stroke:none;fill-rule:nonzero;fill:#371a45;fill-opacity:1;" d="M 351.394531 102.722656 C 351.230469 102.722656 351.066406 102.683594 350.910156 102.597656 C 350.417969 102.332031 350.238281 101.714844 350.507812 101.222656 C 351.804688 98.84375 349.917969 97.496094 349.523438 97.25 C 349.207031 97.050781 349.023438 96.691406 349.050781 96.320312 C 349.074219 95.949219 349.300781 95.617188 349.636719 95.464844 L 352.890625 93.988281 C 353.402344 93.753906 354.003906 93.980469 354.234375 94.488281 C 354.464844 95 354.242188 95.601562 353.730469 95.832031 L 351.882812 96.671875 C 352.886719 97.902344 353.574219 99.832031 352.285156 102.195312 C 352.101562 102.53125 351.753906 102.722656 351.394531 102.722656 Z M 351.394531 102.722656 "/><path style=" stroke:none;fill-rule:nonzero;fill:#371a45;fill-opacity:0.3;" d="M 274.054688 102.382812 C 274.054688 102.382812 273.761719 102.71875 273.328125 103.191406 C 268.335938 102.824219 249.105469 101.300781 239.351562 99.0625 C 239.351562 99.0625 236.589844 102.441406 234.734375 104.410156 C 233.433594 105.789062 231.550781 104.519531 231.527344 101.296875 C 232.714844 101.144531 235.714844 100.128906 237.378906 93.9375 C 250.136719 96.246094 262.269531 96.773438 272.796875 92.753906 Z M 274.054688 102.382812 "/><path style=" stroke:none;fill-rule:nonzero;fill:#371a45;fill-opacity:0.3;" d="M 363.28125 97.429688 C 361.933594 100.519531 354.6875 105.804688 351.410156 101.726562 C 352.535156 99.027344 350.546875 96.167969 350.546875 96.167969 L 352.574219 95.242188 C 352.433594 101.28125 369.367188 93.769531 356.691406 84.46875 C 344.015625 75.167969 312.921875 78.792969 312.921875 78.792969 C 303.007812 88.136719 286.558594 86.867188 286.558594 86.867188 C 302.613281 86.890625 311.5625 72.726562 311.5625 72.726562 C 319.433594 72.089844 334.703125 71.570312 347.734375 75.300781 C 366.210938 80.59375 364.632812 94.332031 363.28125 97.429688 Z M 363.28125 97.429688 "/><path style=" stroke:none;fill-rule:nonzero;fill:#371a45;fill-opacity:1;" d="M 337.511719 158.050781 C 339.992188 157.003906 341.21875 154.199219 341.605469 151.664062 C 341.605469 151.664062 341.734375 150.441406 341.734375 150.441406 C 341.945312 152.089844 341.945312 153.84375 341.476562 155.449219 C 340.96875 157.179688 339.933594 158.917969 338.355469 159.890625 C 337.125 160.417969 336.308594 158.636719 337.511719 158.050781 Z M 337.511719 158.050781 "/><path style=" stroke:none;fill-rule:nonzero;fill:#371a45;fill-opacity:1;" d="M 327.203125 160.96875 C 326.964844 160.96875 326.726562 160.867188 326.558594 160.671875 C 326.257812 160.316406 326.300781 159.78125 326.65625 159.480469 C 333.867188 153.355469 330.609375 138.53125 330.574219 138.382812 C 330.472656 137.925781 330.757812 137.472656 331.210938 137.371094 C 331.664062 137.265625 332.117188 137.554688 332.222656 138.007812 C 332.367188 138.65625 335.742188 153.980469 327.75 160.765625 C 327.59375 160.902344 327.398438 160.96875 327.203125 160.96875 Z M 327.203125 160.96875 "/><path style=" stroke:none;fill-rule:nonzero;fill:#371a45;fill-opacity:0.3;" d="M 344.605469 163.117188 C 345.03125 162.855469 345.484375 162.597656 345.960938 162.347656 C 355.171875 157.535156 347.058594 139.96875 339.453125 144.949219 C 331.847656 149.933594 319.851562 144.949219 319.851562 144.949219 C 323.996094 143.785156 328.492188 138.421875 329.917969 136.601562 L 331.398438 138.195312 C 331.398438 138.195312 340.746094 134.816406 344.863281 135.71875 C 348.976562 136.617188 353.589844 151.089844 353.761719 154.636719 C 353.886719 157.246094 350.199219 163.847656 344.605469 163.117188 Z M 344.605469 163.117188 "/><path style=" stroke:none;fill-rule:nonzero;fill:#371a45;fill-opacity:0.3;" d="M 321.847656 159.902344 C 315.414062 159.242188 308.734375 156.996094 305.328125 151.085938 C 306.46875 150.726562 308.78125 149.371094 308.78125 149.371094 L 312.785156 147.183594 C 312.785156 147.183594 306.246094 156.097656 318.835938 158.96875 C 320.066406 159.25 321.058594 159.566406 321.847656 159.902344 Z M 321.847656 159.902344 "/><path style=" stroke:none;fill-rule:nonzero;fill:#371a45;fill-opacity:1;" d="M 325.824219 67.410156 C 323.324219 66.875 320.757812 68.230469 318.835938 69.785156 C 320.433594 67.625 322.71875 65.769531 325.476562 65.433594 C 325.710938 65.410156 325.90625 65.390625 326.15625 65.410156 C 326.707031 65.5 327.082031 66.023438 326.992188 66.574219 C 326.898438 67.128906 326.378906 67.5 325.824219 67.410156 Z M 325.824219 67.410156 "/><path style=" stroke:none;fill-rule:nonzero;fill:#371a45;fill-opacity:1;" d="M 332.695312 112.644531 C 332.316406 112.644531 331.953125 112.433594 331.777344 112.066406 C 331.539062 111.5625 331.753906 110.957031 332.257812 110.714844 L 342.230469 105.988281 C 342.734375 105.746094 343.339844 105.960938 343.582031 106.46875 C 343.820312 106.972656 343.605469 107.578125 343.097656 107.816406 L 333.128906 112.546875 C 332.988281 112.613281 332.839844 112.644531 332.695312 112.644531 Z M 332.695312 112.644531 "/><path style=" stroke:none;fill-rule:nonzero;fill:#371a45;fill-opacity:1;" d="M 335.558594 110.265625 L 330.269531 96.585938 L 337.394531 109.40625 Z M 335.558594 110.265625 "/><path style=" stroke:none;fill-rule:nonzero;fill:#371a45;fill-opacity:0.3;" d="M 322.402344 72.277344 L 317.230469 72.570312 L 310.554688 72.277344 L 314.15625 66.875 C 316.40625 66.429688 318.992188 65.898438 321.152344 65.453125 C 322.480469 65.179688 323.816406 65.339844 324.996094 65.859375 C 324.714844 66.019531 324.382812 66.191406 323.988281 66.378906 C 317.570312 69.480469 322.402344 72.277344 322.402344 72.277344 Z M 322.402344 72.277344 "/><g transform="matrix(1,0,0,1,16,115)"><g clip-path="url(#c5e2089c6f)"><g style="fill:#371a45;fill-opacity:1;"><g transform="translate(0.416026, 43.090235)"><path style="stroke:none" d="M 15.8125 0.4375 C 11.101562 0.4375 7.65625 -0.878906 5.46875 -3.515625 C 3.289062 -6.148438 2.203125 -10.085938 2.203125 -15.328125 C 2.203125 -25.816406 6.535156 -31.0625 15.203125 -31.0625 C 18.171875 -31.0625 20.550781 -30.460938 22.34375 -29.265625 C 24.144531 -28.078125 25.285156 -26.320312 25.765625 -24 C 25.992188 -22.789062 25.738281 -21.851562 25 -21.1875 C 24.269531 -20.519531 23.300781 -20.1875 22.09375 -20.1875 L 21.5625 -20.1875 C 20.800781 -20.1875 20.21875 -20.316406 19.8125 -20.578125 C 19.414062 -20.847656 19.097656 -21.25 18.859375 -21.78125 C 18.628906 -22.3125 18.367188 -22.945312 18.078125 -23.6875 C 17.691406 -24.625 16.75 -25.09375 15.25 -25.09375 C 14.007812 -25.09375 13.023438 -24.773438 12.296875 -24.140625 C 11.578125 -23.515625 11.0625 -22.492188 10.75 -21.078125 C 10.445312 -19.660156 10.296875 -17.742188 10.296875 -15.328125 C 10.296875 -12.734375 10.535156 -10.742188 11.015625 -9.359375 C 11.503906 -7.984375 12.15625 -7.035156 12.96875 -6.515625 C 13.78125 -6.003906 14.65625 -5.75 15.59375 -5.75 C 16.625 -5.75 17.507812 -5.910156 18.25 -6.234375 C 18.988281 -6.554688 19.359375 -7 19.359375 -7.5625 L 19.359375 -10.953125 L 18.640625 -10.953125 C 16.140625 -10.953125 14.890625 -11.894531 14.890625 -13.78125 C 14.890625 -15.664062 16.140625 -16.609375 18.640625 -16.609375 L 22.671875 -16.609375 C 25.171875 -16.609375 26.421875 -15.359375 26.421875 -12.859375 L 26.421875 -6.84375 C 26.421875 -5.9375 26.351562 -5.179688 26.21875 -4.578125 C 26.09375 -3.972656 25.820312 -3.445312 25.40625 -3 C 24.488281 -2.03125 23.285156 -1.210938 21.796875 -0.546875 C 20.316406 0.109375 18.320312 0.4375 15.8125 0.4375 Z M 15.8125 0.4375 "/></g></g><g style="fill:#371a45;fill-opacity:1;"><g transform="translate(29.048045, 43.090235)"><path style="stroke:none" d="M 7.0625 0 C 4.5625 0 3.3125 -1.25 3.3125 -3.75 C 3.34375 -5.664062 3.363281 -7.585938 3.375 -9.515625 C 3.394531 -11.453125 3.40625 -13.390625 3.40625 -15.328125 C 3.40625 -17.242188 3.394531 -19.164062 3.375 -21.09375 C 3.363281 -23.03125 3.34375 -24.953125 3.3125 -26.859375 C 3.3125 -29.367188 4.5625 -30.625 7.0625 -30.625 L 14.671875 -30.625 C 19.148438 -30.625 22.40625 -29.898438 24.4375 -28.453125 C 26.46875 -27.015625 27.484375 -24.675781 27.484375 -21.4375 C 27.484375 -19.457031 26.945312 -17.757812 25.875 -16.34375 C 24.800781 -14.9375 23.320312 -13.992188 21.4375 -13.515625 L 21.4375 -13.34375 C 22.90625 -12.90625 24.109375 -11.960938 25.046875 -10.515625 C 25.992188 -9.066406 26.773438 -6.972656 27.390625 -4.234375 C 27.691406 -2.910156 27.523438 -1.875 26.890625 -1.125 C 26.253906 -0.375 25.289062 0 24 0 L 22.578125 0 C 20.285156 0 18.960938 -1.191406 18.609375 -3.578125 C 18.398438 -4.992188 18.101562 -6.257812 17.71875 -7.375 C 17.332031 -8.5 16.785156 -9.390625 16.078125 -10.046875 C 15.378906 -10.710938 14.425781 -11.046875 13.21875 -11.046875 L 11.578125 -11.046875 C 11.578125 -9.835938 11.578125 -8.617188 11.578125 -7.390625 C 11.578125 -6.171875 11.59375 -4.957031 11.625 -3.75 C 11.625 -1.25 10.367188 0 7.859375 0 Z M 11.578125 -15.90625 L 13.078125 -15.90625 C 15.171875 -15.90625 16.671875 -16.269531 17.578125 -17 C 18.492188 -17.738281 18.953125 -18.953125 18.953125 -20.640625 C 18.953125 -22.023438 18.539062 -23.019531 17.71875 -23.625 C 16.894531 -24.226562 15.570312 -24.53125 13.75 -24.53125 L 11.625 -24.53125 C 11.59375 -23.4375 11.578125 -22.25 11.578125 -20.96875 C 11.578125 -19.6875 11.578125 -18 11.578125 -15.90625 Z M 11.578125 -15.90625 "/></g></g><g style="fill:#371a45;fill-opacity:1;"><g transform="translate(59.182362, 43.090235)"><path style="stroke:none" d="M 14.09375 -31.0625 C 16.007812 -31.0625 17.6875 -30.613281 19.125 -29.71875 C 20.570312 -28.820312 21.78125 -27.34375 22.75 -25.28125 C 23.726562 -23.21875 24.472656 -20.445312 24.984375 -16.96875 C 25.503906 -13.488281 25.804688 -9.160156 25.890625 -3.984375 C 25.921875 -2.710938 25.613281 -1.726562 24.96875 -1.03125 C 24.320312 -0.34375 23.394531 0 22.1875 0 L 21.515625 0 C 19.015625 0 17.765625 -1.148438 17.765625 -3.453125 C 17.765625 -4.035156 17.765625 -4.609375 17.765625 -5.171875 C 17.765625 -5.734375 17.75 -6.289062 17.71875 -6.84375 L 9.890625 -6.84375 C 9.890625 -6.375 9.882812 -5.878906 9.875 -5.359375 C 9.863281 -4.847656 9.859375 -4.3125 9.859375 -3.75 C 9.859375 -1.25 8.617188 0 6.140625 0 C 4.960938 0 4.050781 -0.320312 3.40625 -0.96875 C 2.757812 -1.613281 2.445312 -2.554688 2.46875 -3.796875 C 2.5 -5.003906 2.53125 -6.148438 2.5625 -7.234375 C 2.59375 -8.328125 2.640625 -9.378906 2.703125 -10.390625 C 3.046875 -15.597656 3.695312 -19.710938 4.65625 -22.734375 C 5.613281 -25.753906 6.878906 -27.894531 8.453125 -29.15625 C 10.035156 -30.425781 11.914062 -31.0625 14.09375 -31.0625 Z M 9.984375 -12.109375 L 17.546875 -12.109375 C 17.367188 -15.410156 17.101562 -17.976562 16.75 -19.8125 C 16.394531 -21.65625 15.941406 -22.953125 15.390625 -23.703125 C 14.847656 -24.453125 14.210938 -24.828125 13.484375 -24.828125 C 12.742188 -24.828125 12.128906 -24.453125 11.640625 -23.703125 C 11.160156 -22.953125 10.789062 -21.65625 10.53125 -19.8125 C 10.28125 -17.976562 10.097656 -15.410156 9.984375 -12.109375 Z M 9.984375 -12.109375 "/></g></g><g style="fill:#371a45;fill-opacity:1;"><g transform="translate(87.549265, 43.090235)"><path style="stroke:none" d="M 31.15625 -30.625 C 33.65625 -30.625 34.90625 -29.367188 34.90625 -26.859375 C 34.90625 -24.953125 34.894531 -23.03125 34.875 -21.09375 C 34.863281 -19.164062 34.859375 -17.242188 34.859375 -15.328125 C 34.859375 -13.390625 34.863281 -11.453125 34.875 -9.515625 C 34.894531 -7.585938 34.90625 -5.664062 34.90625 -3.75 C 34.90625 -1.25 33.65625 0 31.15625 0 L 30.359375 0 C 27.847656 0 26.59375 -1.25 26.59375 -3.75 C 26.625 -5.664062 26.644531 -7.585938 26.65625 -9.515625 C 26.675781 -11.453125 26.6875 -13.390625 26.6875 -15.328125 L 26.640625 -21.171875 L 26.46875 -21.171875 L 21.4375 -6.578125 C 20.726562 -4.546875 19.648438 -3.53125 18.203125 -3.53125 C 16.734375 -3.53125 15.675781 -4.5625 15.03125 -6.625 L 10.390625 -21.171875 L 10.15625 -21.171875 C 10.1875 -18.484375 10.21875 -16.125 10.25 -14.09375 C 10.28125 -12.0625 10.316406 -10.21875 10.359375 -8.5625 C 10.398438 -6.914062 10.453125 -5.328125 10.515625 -3.796875 C 10.578125 -2.554688 10.296875 -1.613281 9.671875 -0.96875 C 9.054688 -0.320312 8.160156 0 6.984375 0 C 5.804688 0 4.898438 -0.320312 4.265625 -0.96875 C 3.628906 -1.613281 3.328125 -2.539062 3.359375 -3.75 C 3.390625 -11.46875 3.390625 -19.171875 3.359375 -26.859375 C 3.328125 -28.066406 3.632812 -28.992188 4.28125 -29.640625 C 4.9375 -30.296875 5.863281 -30.625 7.0625 -30.625 L 11.140625 -30.625 C 13.253906 -30.625 14.679688 -29.632812 15.421875 -27.65625 L 19.21875 -17.625 L 22.40625 -27.53125 C 23.050781 -29.59375 24.460938 -30.625 26.640625 -30.625 Z M 31.15625 -30.625 "/></g></g><g style="fill:#371a45;fill-opacity:1;"><g transform="translate(125.769477, 43.090235)"><path style="stroke:none" d="M 31.15625 -30.625 C 33.65625 -30.625 34.90625 -29.367188 34.90625 -26.859375 C 34.90625 -24.953125 34.894531 -23.03125 34.875 -21.09375 C 34.863281 -19.164062 34.859375 -17.242188 34.859375 -15.328125 C 34.859375 -13.390625 34.863281 -11.453125 34.875 -9.515625 C 34.894531 -7.585938 34.90625 -5.664062 34.90625 -3.75 C 34.90625 -1.25 33.65625 0 31.15625 0 L 30.359375 0 C 27.847656 0 26.59375 -1.25 26.59375 -3.75 C 26.625 -5.664062 26.644531 -7.585938 26.65625 -9.515625 C 26.675781 -11.453125 26.6875 -13.390625 26.6875 -15.328125 L 26.640625 -21.171875 L 26.46875 -21.171875 L 21.4375 -6.578125 C 20.726562 -4.546875 19.648438 -3.53125 18.203125 -3.53125 C 16.734375 -3.53125 15.675781 -4.5625 15.03125 -6.625 L 10.390625 -21.171875 L 10.15625 -21.171875 C 10.1875 -18.484375 10.21875 -16.125 10.25 -14.09375 C 10.28125 -12.0625 10.316406 -10.21875 10.359375 -8.5625 C 10.398438 -6.914062 10.453125 -5.328125 10.515625 -3.796875 C 10.578125 -2.554688 10.296875 -1.613281 9.671875 -0.96875 C 9.054688 -0.320312 8.160156 0 6.984375 0 C 5.804688 0 4.898438 -0.320312 4.265625 -0.96875 C 3.628906 -1.613281 3.328125 -2.539062 3.359375 -3.75 C 3.390625 -11.46875 3.390625 -19.171875 3.359375 -26.859375 C 3.328125 -28.066406 3.632812 -28.992188 4.28125 -29.640625 C 4.9375 -30.296875 5.863281 -30.625 7.0625 -30.625 L 11.140625 -30.625 C 13.253906 -30.625 14.679688 -29.632812 15.421875 -27.65625 L 19.21875 -17.625 L 22.40625 -27.53125 C 23.050781 -29.59375 24.460938 -30.625 26.640625 -30.625 Z M 31.15625 -30.625 "/></g></g><g style="fill:#371a45;fill-opacity:1;"><g transform="translate(163.989689, 43.090235)"><path style="stroke:none" d="M 11.578125 -5.875 C 12.867188 -5.90625 14.160156 -5.921875 15.453125 -5.921875 C 16.753906 -5.921875 18.023438 -5.9375 19.265625 -5.96875 C 21.765625 -5.96875 23.015625 -4.976562 23.015625 -3 C 23.015625 -1 21.765625 0 19.265625 0 L 7.0625 0 C 5.863281 0 4.9375 -0.320312 4.28125 -0.96875 C 3.632812 -1.613281 3.328125 -2.539062 3.359375 -3.75 C 3.359375 -5.695312 3.363281 -7.632812 3.375 -9.5625 C 3.394531 -11.488281 3.40625 -13.410156 3.40625 -15.328125 C 3.40625 -17.242188 3.394531 -19.164062 3.375 -21.09375 C 3.363281 -23.03125 3.359375 -24.953125 3.359375 -26.859375 C 3.328125 -28.066406 3.632812 -28.992188 4.28125 -29.640625 C 4.9375 -30.296875 5.863281 -30.625 7.0625 -30.625 L 18.828125 -30.625 C 21.328125 -30.625 22.578125 -29.632812 22.578125 -27.65625 C 22.578125 -25.65625 21.328125 -24.65625 18.828125 -24.65625 C 17.648438 -24.6875 16.445312 -24.703125 15.21875 -24.703125 C 14 -24.703125 12.785156 -24.71875 11.578125 -24.75 L 11.578125 -17.984375 C 12.515625 -18.015625 13.441406 -18.03125 14.359375 -18.03125 C 15.273438 -18.03125 16.175781 -18.046875 17.0625 -18.078125 C 19.5625 -18.078125 20.8125 -17.085938 20.8125 -15.109375 C 20.8125 -13.109375 19.5625 -12.109375 17.0625 -12.109375 C 16.175781 -12.140625 15.273438 -12.15625 14.359375 -12.15625 C 13.441406 -12.15625 12.515625 -12.171875 11.578125 -12.203125 Z M 11.578125 -5.875 "/></g></g><g style="fill:#371a45;fill-opacity:1;"><g transform="translate(188.954331, 43.090235)"><path style="stroke:none" d="M 7.0625 0 C 4.5625 0 3.3125 -1.25 3.3125 -3.75 C 3.34375 -5.664062 3.363281 -7.585938 3.375 -9.515625 C 3.394531 -11.453125 3.40625 -13.390625 3.40625 -15.328125 C 3.40625 -17.242188 3.394531 -19.164062 3.375 -21.09375 C 3.363281 -23.03125 3.34375 -24.953125 3.3125 -26.859375 C 3.3125 -29.367188 4.5625 -30.625 7.0625 -30.625 L 14.671875 -30.625 C 19.148438 -30.625 22.40625 -29.898438 24.4375 -28.453125 C 26.46875 -27.015625 27.484375 -24.675781 27.484375 -21.4375 C 27.484375 -19.457031 26.945312 -17.757812 25.875 -16.34375 C 24.800781 -14.9375 23.320312 -13.992188 21.4375 -13.515625 L 21.4375 -13.34375 C 22.90625 -12.90625 24.109375 -11.960938 25.046875 -10.515625 C 25.992188 -9.066406 26.773438 -6.972656 27.390625 -4.234375 C 27.691406 -2.910156 27.523438 -1.875 26.890625 -1.125 C 26.253906 -0.375 25.289062 0 24 0 L 22.578125 0 C 20.285156 0 18.960938 -1.191406 18.609375 -3.578125 C 18.398438 -4.992188 18.101562 -6.257812 17.71875 -7.375 C 17.332031 -8.5 16.785156 -9.390625 16.078125 -10.046875 C 15.378906 -10.710938 14.425781 -11.046875 13.21875 -11.046875 L 11.578125 -11.046875 C 11.578125 -9.835938 11.578125 -8.617188 11.578125 -7.390625 C 11.578125 -6.171875 11.59375 -4.957031 11.625 -3.75 C 11.625 -1.25 10.367188 0 7.859375 0 Z M 11.578125 -15.90625 L 13.078125 -15.90625 C 15.171875 -15.90625 16.671875 -16.269531 17.578125 -17 C 18.492188 -17.738281 18.953125 -18.953125 18.953125 -20.640625 C 18.953125 -22.023438 18.539062 -23.019531 17.71875 -23.625 C 16.894531 -24.226562 15.570312 -24.53125 13.75 -24.53125 L 11.625 -24.53125 C 11.59375 -23.4375 11.578125 -22.25 11.578125 -20.96875 C 11.578125 -19.6875 11.578125 -18 11.578125 -15.90625 Z M 11.578125 -15.90625 "/></g></g><g style="fill:#371a45;fill-opacity:1;"><g transform="translate(219.088648, 43.090235)"><path style="stroke:none" d="M 12.953125 0.4375 C 7.054688 0.4375 3.550781 -1.5625 2.4375 -5.5625 C 2.101562 -6.769531 2.28125 -7.710938 2.96875 -8.390625 C 3.664062 -9.066406 4.578125 -9.40625 5.703125 -9.40625 L 6.09375 -9.40625 C 6.800781 -9.40625 7.351562 -9.269531 7.75 -9 C 8.144531 -8.738281 8.515625 -8.394531 8.859375 -7.96875 C 9.203125 -7.539062 9.625 -7.050781 10.125 -6.5 C 10.738281 -5.90625 11.769531 -5.609375 13.21875 -5.609375 C 15.539062 -5.609375 16.703125 -6.507812 16.703125 -8.3125 C 16.703125 -9.34375 16.363281 -10.144531 15.6875 -10.71875 C 15.007812 -11.289062 14.128906 -11.765625 13.046875 -12.140625 C 11.972656 -12.523438 10.835938 -12.914062 9.640625 -13.3125 C 8.453125 -13.71875 7.320312 -14.234375 6.25 -14.859375 C 5.175781 -15.492188 4.300781 -16.363281 3.625 -17.46875 C 2.945312 -18.582031 2.609375 -20.035156 2.609375 -21.828125 C 2.609375 -25.160156 3.578125 -27.53125 5.515625 -28.9375 C 7.460938 -30.351562 10.21875 -31.0625 13.78125 -31.0625 C 17.226562 -31.0625 19.828125 -30.359375 21.578125 -28.953125 C 23.335938 -27.554688 24.320312 -25.550781 24.53125 -22.9375 C 24.613281 -21.726562 24.304688 -20.8125 23.609375 -20.1875 C 22.921875 -19.570312 22.019531 -19.265625 20.90625 -19.265625 C 19.78125 -19.265625 18.984375 -19.585938 18.515625 -20.234375 C 18.046875 -20.878906 17.675781 -21.820312 17.40625 -23.0625 C 17.195312 -24.007812 16.785156 -24.660156 16.171875 -25.015625 C 15.554688 -25.367188 14.71875 -25.546875 13.65625 -25.546875 C 12.382812 -25.546875 11.5 -25.21875 11 -24.5625 C 10.5 -23.914062 10.25 -23.0625 10.25 -22 C 10.25 -20.96875 10.515625 -20.148438 11.046875 -19.546875 C 11.578125 -18.941406 12.285156 -18.460938 13.171875 -18.109375 C 14.054688 -17.765625 15.019531 -17.453125 16.0625 -17.171875 C 17.101562 -16.890625 18.144531 -16.570312 19.1875 -16.21875 C 20.238281 -15.863281 21.207031 -15.398438 22.09375 -14.828125 C 22.976562 -14.253906 23.6875 -13.488281 24.21875 -12.53125 C 24.75 -11.570312 25.015625 -10.34375 25.015625 -8.84375 C 25.015625 -5.800781 23.992188 -3.492188 21.953125 -1.921875 C 19.921875 -0.347656 16.921875 0.4375 12.953125 0.4375 Z M 12.953125 0.4375 "/></g></g></g></g></g></svg>